<?xml version="1.0" standalone="no"?>
<!DOCTYPE svg PUBLIC "-//W3C//DTD SVG 20010904//EN"
 "http://www.w3.org/TR/2001/REC-SVG-20010904/DTD/svg10.dtd">
<svg version="1.0" xmlns="http://www.w3.org/2000/svg"
 width="580.000000pt" height="580.000000pt" viewBox="0 0 580.000000 580.000000"
 preserveAspectRatio="xMidYMid meet">
<metadata>
Created by potrace 1.15, written by Peter Selinger 2001-2017
</metadata>
<g transform="translate(0.000000,580.000000) scale(0.100000,-0.100000)"
fill="#000000" stroke="none">
<path d="M2768 5655 c-2 -3 -69 -7 -149 -10 -79 -3 -171 -7 -204 -10 -33 -3
-87 -7 -120 -10 -33 -2 -60 -5 -60 -5 0 -2 -8 -4 -69 -19 -43 -11 -109 -42
-114 -53 -2 -5 -10 -8 -18 -8 -19 0 -172 -48 -204 -64 -33 -16 -82 -12 -178
15 -42 12 -112 23 -156 25 -67 3 -90 9 -149 40 -76 39 -120 46 -194 32 -99
-18 -114 -19 -129 -7 -10 8 -14 8 -14 0 0 -8 -5 -8 -19 1 -14 9 -29 8 -65 -2
-39 -11 -83 -40 -60 -40 4 0 -5 -13 -20 -29 -16 -16 -26 -35 -23 -43 2 -7 -1
-24 -7 -38 -7 -14 -11 -36 -10 -49 1 -14 -5 -31 -12 -39 -12 -11 -20 -56 -15
-84 0 -5 -2 -8 -6 -8 -5 0 -8 -34 -8 -75 0 -41 3 -75 8 -75 4 0 3 -9 -3 -20
-8 -14 -8 -20 0 -20 7 0 9 -18 6 -47 -3 -27 -6 -48 -7 -48 -1 0 -3 -11 -4 -24
-13 -130 -109 -416 -155 -460 -29 -28 -80 -105 -80 -121 0 -17 -64 -145 -80
-160 -3 -3 -14 -34 -25 -70 -18 -64 -25 -80 -85 -188 -20 -36 -32 -74 -35
-115 -7 -67 -9 -75 -48 -158 -15 -31 -27 -63 -27 -72 0 -10 -4 -17 -8 -17 -5
0 -9 -6 -9 -14 0 -20 -32 -126 -47 -156 -7 -14 -23 -63 -35 -110 -13 -47 -30
-107 -38 -135 -8 -27 -17 -74 -19 -105 -11 -146 -15 -189 -20 -245 -7 -84 -5
-515 3 -528 3 -6 1 -7 -5 -3 -17 10 -15 -13 7 -97 19 -70 29 -124 36 -197 2
-19 4 -36 5 -37 2 -2 3 -6 5 -10 13 -50 20 -68 36 -100 10 -21 19 -45 19 -54
0 -10 4 -19 9 -21 5 -1 12 -19 15 -39 6 -37 17 -73 38 -119 31 -71 44 -95 49
-100 4 -3 13 -25 20 -50 12 -39 43 -99 122 -231 9 -17 26 -40 37 -51 11 -12
22 -30 25 -39 3 -10 15 -21 26 -24 10 -4 19 -10 19 -14 0 -5 16 -23 35 -42 19
-19 35 -40 35 -46 0 -7 4 -13 9 -13 5 0 53 -43 107 -95 55 -52 108 -98 118
-101 11 -4 46 -32 77 -63 62 -61 134 -114 158 -117 9 0 47 -13 85 -28 37 -14
77 -26 87 -26 11 0 19 -4 19 -9 0 -7 63 -23 105 -26 6 0 15 -4 21 -7 6 -4 31
-10 55 -14 24 -4 61 -15 82 -26 20 -10 37 -16 37 -13 0 2 22 -9 50 -25 28 -16
50 -26 51 -22 0 4 9 -14 19 -41 l20 -47 -50 -95 c-28 -53 -50 -102 -50 -109 0
-8 -5 -16 -10 -18 -6 -2 -14 -29 -17 -61 l-6 -57 111 0 110 0 7 43 c3 23 10
51 15 62 19 46 40 106 44 128 10 59 94 196 109 180 4 -3 9 2 13 11 3 9 10 13
15 10 5 -3 9 0 9 5 0 6 12 11 26 11 25 0 34 -7 110 -91 31 -34 93 -86 123
-103 9 -5 18 -12 21 -16 12 -15 78 -49 115 -59 23 -6 58 -27 79 -46 33 -30 40
-43 44 -85 l5 -50 48 0 c48 0 49 1 49 30 0 17 5 30 10 30 6 0 10 8 10 18 0 14
106 131 166 181 9 8 41 17 71 19 52 4 55 3 93 -37 22 -23 40 -48 40 -55 0 -8
6 -26 14 -40 8 -15 20 -54 27 -87 13 -57 14 -59 45 -59 29 0 32 3 37 41 6 44
34 78 122 144 56 42 95 81 95 96 0 5 4 9 9 9 5 0 13 19 19 42 9 35 8 44 -6 55
-32 24 -81 26 -145 7 -33 -10 -76 -18 -94 -17 -34 1 -121 38 -135 58 -4 5 -8
6 -8 1 0 -5 -6 -4 -12 2 -20 16 -91 23 -257 27 -84 2 -170 7 -190 10 -65 10
-295 14 -333 6 -27 -6 -38 -6 -38 3 0 7 -3 6 -9 -2 -11 -17 -21 -17 -32 0 -6
9 -9 10 -9 1 0 -7 -6 -10 -14 -7 -8 3 -16 -2 -19 -13 -3 -11 -5 -8 -6 10 -1
20 -7 31 -21 34 -11 3 -17 9 -14 14 3 5 -2 9 -10 9 -9 0 -16 4 -16 10 0 5 -23
22 -52 36 -47 24 -63 26 -163 27 -103 0 -155 9 -155 29 0 4 -6 8 -14 8 -7 0
-25 11 -39 24 -14 13 -29 21 -32 18 -3 -4 -9 -2 -13 4 -4 5 -41 20 -82 33 -41
13 -79 27 -85 31 -5 4 -26 11 -45 15 -19 3 -49 13 -66 21 -17 7 -40 15 -50 17
-11 2 -32 10 -49 17 -16 7 -39 15 -50 17 -10 2 -22 7 -25 11 -3 5 -29 21 -59
36 -30 15 -73 48 -97 72 -24 24 -46 44 -48 44 -3 0 -17 11 -32 25 -15 14 -31
25 -36 25 -8 0 -84 68 -129 115 -73 78 -109 122 -109 133 0 6 -5 12 -10 12 -6
0 -18 17 -28 38 -9 20 -23 43 -29 50 -7 7 -13 22 -13 32 0 10 -3 20 -8 22 -13
6 -80 145 -87 182 -4 20 -11 36 -15 36 -4 0 -13 19 -20 43 -8 23 -19 49 -26
57 -15 17 -41 116 -54 200 -5 30 -14 84 -21 120 -12 69 -19 134 -21 188 -1 17
-6 32 -11 32 -5 0 -6 11 -3 25 4 16 2 25 -5 25 -8 0 -8 4 0 14 8 9 8 16 2 20
-5 4 -8 16 -5 29 2 12 7 49 9 82 10 113 14 150 24 205 6 30 12 75 15 100 2 25
9 65 14 90 6 25 13 90 16 145 7 112 15 165 28 181 4 6 11 48 15 93 3 44 9 81
14 81 4 0 11 15 15 33 10 42 9 38 23 71 6 15 16 58 21 95 5 36 13 87 18 113 5
26 7 50 4 52 -3 3 3 8 12 12 9 3 16 14 16 23 0 9 4 21 9 27 9 10 50 139 81
259 12 44 25 84 30 90 4 5 8 12 7 15 -1 3 10 21 25 40 15 20 33 57 39 83 7 26
17 47 22 47 4 0 6 4 3 9 -7 10 30 50 97 104 33 27 56 57 78 105 17 37 38 80
47 96 18 34 23 215 9 346 -13 132 -17 310 -7 310 6 0 10 6 10 14 0 8 7 22 16
31 25 24 83 11 142 -33 17 -13 32 -21 32 -18 0 4 10 -4 23 -17 30 -32 57 -41
58 -19 0 12 3 10 10 -7 5 -14 8 -30 5 -37 -3 -7 2 -15 10 -18 9 -3 12 -10 9
-16 -8 -12 80 -100 100 -100 8 0 20 -8 27 -18 7 -11 36 -31 63 -46 28 -15 57
-35 65 -44 8 -9 27 -23 43 -29 15 -7 27 -16 27 -21 0 -5 10 -8 23 -7 29 2 34
36 10 66 -10 12 -46 50 -80 84 -35 34 -63 65 -63 69 0 7 -12 22 -65 80 -19 22
-35 33 -35 25 0 -12 -2 -12 -9 0 -7 11 -9 11 -14 0 -4 -9 -6 -10 -6 -2 -1 7
-8 10 -16 7 -8 -4 -12 -11 -8 -18 3 -6 -3 -3 -15 8 -27 24 -14 57 19 49 17 -5
20 -3 14 8 -7 11 -6 12 7 2 8 -7 18 -9 22 -5 4 4 14 -2 22 -12 10 -14 14 -16
14 -5 0 8 3 10 8 4 4 -5 18 -11 32 -12 101 -10 188 -26 228 -44 102 -45 117
-52 123 -60 18 -29 139 -7 139 25 0 9 4 16 9 16 5 0 23 19 40 42 17 23 31 38
31 32 0 -5 3 -5 8 1 12 17 95 54 132 59 19 3 65 8 101 10 36 3 88 10 115 15
27 5 69 12 94 16 25 3 82 17 127 31 107 32 94 31 268 39 200 10 369 6 405 -8
8 -3 29 -8 45 -11 17 -3 64 -11 105 -19 41 -7 101 -12 133 -10 41 2 57 0 57
-9 0 -9 3 -8 10 2 7 12 10 12 10 1 0 -7 6 -11 15 -7 8 3 15 1 15 -4 0 -6 7
-10 15 -10 9 0 26 -6 38 -14 24 -15 97 -34 162 -41 76 -10 120 -17 127 -21 4
-3 17 -7 28 -10 11 -2 28 -6 38 -8 22 -5 80 -37 150 -84 69 -45 119 -63 149
-51 13 5 23 5 23 1 0 -4 4 -2 8 3 11 15 61 48 122 81 30 16 57 32 58 37 2 4 8
5 13 1 5 -3 9 0 9 5 0 6 7 11 15 11 8 0 15 5 15 10 0 6 6 10 13 10 8 0 29 8
48 18 22 11 61 18 111 19 69 2 78 0 83 -18 4 -10 10 -17 15 -14 5 3 12 -7 15
-22 4 -15 10 -35 15 -44 14 -26 34 -373 29 -494 -6 -157 -4 -180 25 -236 15
-30 28 -61 30 -69 13 -69 19 -91 27 -96 5 -3 9 -13 9 -23 0 -9 9 -27 20 -39
11 -12 20 -25 20 -30 0 -4 13 -21 30 -37 16 -15 32 -41 35 -56 4 -16 10 -27
15 -24 8 5 24 -32 21 -48 -1 -5 3 -6 8 -3 10 7 24 -22 16 -34 -3 -4 2 -10 10
-14 8 -3 15 -16 15 -29 0 -13 3 -27 8 -31 4 -4 7 -11 8 -14 2 -19 37 -92 44
-92 5 0 12 -9 15 -20 4 -11 10 -18 15 -15 5 3 11 -4 15 -15 3 -11 10 -20 14
-20 4 0 7 -10 8 -22 1 -19 10 -107 18 -168 3 -25 17 -54 37 -73 10 -10 18 -16
18 -13 0 3 12 -6 26 -19 22 -20 25 -31 20 -55 -3 -17 -2 -29 2 -26 5 3 8 -23
8 -57 -1 -99 12 -209 29 -249 8 -21 15 -49 15 -63 0 -14 3 -25 8 -25 8 0 32
-71 32 -95 0 -9 4 -14 9 -11 5 3 9 -4 10 -17 0 -12 3 -33 5 -47 2 -14 4 -33 5
-42 0 -10 7 -18 14 -18 9 0 12 -29 11 -113 0 -61 -2 -114 -3 -117 -16 -33 -22
-171 -9 -223 9 -37 9 -60 -1 -105 -7 -31 -15 -78 -18 -105 -3 -26 -9 -47 -14
-47 -5 0 -9 -25 -9 -55 0 -30 -4 -55 -8 -55 -4 0 -9 -16 -10 -35 -4 -49 -39
-186 -51 -198 -6 -6 -11 -19 -11 -29 0 -10 -4 -26 -10 -36 -5 -9 -19 -39 -30
-67 -71 -167 -112 -248 -143 -280 -15 -16 -38 -47 -49 -67 -12 -21 -30 -40
-40 -44 -10 -3 -18 -10 -18 -15 0 -6 -6 -16 -12 -23 -7 -7 -29 -32 -48 -55
-82 -97 -221 -230 -255 -242 -19 -7 -35 -17 -35 -21 0 -4 -6 -8 -12 -8 -25 0
-124 -56 -146 -83 -13 -15 -28 -25 -33 -21 -5 3 -9 1 -9 -4 0 -8 -78 -39 -90
-35 -3 0 -14 -4 -25 -10 -11 -6 -22 -12 -25 -13 -3 -1 -15 -5 -27 -9 -13 -4
-23 -12 -23 -17 0 -5 -4 -6 -10 -3 -5 3 -10 2 -10 -3 0 -11 -60 -38 -74 -34
-5 2 -5 -3 1 -10 9 -10 -3 -13 -64 -15 -50 -2 -79 -8 -89 -18 -9 -8 -24 -15
-35 -15 -11 0 -22 -7 -26 -16 -3 -9 -13 -14 -24 -11 -11 3 -19 1 -19 -5 0 -5
-4 -6 -10 -3 -5 3 -10 -1 -10 -9 0 -9 -6 -15 -12 -13 -7 1 -12 -6 -12 -16 2
-14 -1 -15 -12 -6 -11 9 -14 8 -14 -6 0 -11 -5 -15 -15 -11 -8 3 -15 0 -15 -7
0 -8 -4 -6 -10 3 -5 8 -10 10 -10 4 0 -6 -6 -11 -12 -11 -7 -1 -53 -6 -103
-13 -49 -6 -98 -12 -107 -12 -10 1 -18 -6 -18 -14 0 -8 -4 -12 -10 -9 -5 3
-10 -1 -10 -10 0 -8 7 -18 15 -21 8 -4 15 -10 15 -16 0 -14 27 -38 34 -31 3 4
6 0 6 -7 0 -7 11 -28 25 -46 14 -18 25 -35 25 -39 0 -26 114 -125 144 -125 9
0 16 -5 16 -11 0 -5 4 -8 9 -5 5 3 14 -1 21 -10 7 -8 19 -13 27 -10 8 4 13 -3
14 -17 1 -21 1 -20 8 3 10 31 3 118 -11 144 -7 13 -7 16 1 12 6 -4 4 11 -5 36
-21 60 -24 134 -4 130 12 -3 13 -1 3 9 -7 7 -13 18 -13 24 0 5 5 3 10 -5 8
-11 12 -12 18 -3 5 8 22 10 47 7 81 -11 208 -9 213 4 2 7 12 12 23 12 23 0 59
29 59 48 0 7 4 11 8 8 5 -3 18 3 30 14 11 11 33 22 49 25 15 4 35 9 43 12 8 4
18 7 22 7 3 1 9 4 13 8 4 4 13 4 21 1 8 -3 14 0 14 7 0 6 5 8 10 5 6 -3 10 -1
10 5 0 6 14 16 30 21 17 6 30 14 30 19 0 4 21 10 46 14 25 3 58 12 72 19 15 8
48 25 74 38 26 13 50 29 52 36 3 7 13 13 21 13 9 0 14 4 11 9 -3 5 8 14 24 21
17 7 30 18 30 24 0 6 17 20 37 31 49 26 64 38 141 110 143 134 209 202 232
240 14 22 31 48 39 57 22 26 81 138 81 154 0 8 5 14 10 14 6 0 10 8 10 19 0
10 6 24 14 30 8 7 17 23 20 36 4 14 11 25 16 25 6 0 10 8 10 18 0 10 4 22 8
27 12 15 29 73 43 150 14 81 42 142 70 150 11 4 17 11 14 16 -4 5 8 9 24 9
l31 0 0 620 0 621 -33 -3 c-38 -2 -57 7 -57 28 0 8 -6 14 -13 14 -11 0 -23 21
-46 81 -5 15 -11 60 -12 100 -3 86 -25 175 -51 201 -9 9 -20 29 -24 43 -3 14
-10 23 -14 20 -5 -3 -11 25 -15 62 -4 38 -11 84 -17 103 -14 49 -69 139 -89
145 -10 3 -21 26 -28 61 -14 63 -48 133 -73 152 -20 14 -78 99 -78 112 0 14
-54 111 -98 177 -21 32 -44 77 -50 99 -14 49 -16 128 -3 120 5 -3 8 10 6 29
-2 19 0 35 4 35 4 0 7 54 7 120 -1 66 -5 120 -9 120 -5 0 -6 4 -2 9 6 11 8
146 2 176 -3 11 -8 41 -11 68 -4 26 -11 47 -17 47 -5 0 -8 3 -8 8 4 21 -3 42
-16 56 -9 8 -16 18 -15 21 0 12 -35 85 -42 85 -5 0 -8 5 -8 11 0 25 -63 61
-113 65 -17 1 -34 3 -37 4 -3 1 -9 2 -13 1 -5 -1 -29 -3 -55 -6 -96 -9 -160
-24 -223 -50 -35 -15 -75 -29 -89 -32 -14 -3 -27 -9 -30 -12 -6 -8 -106 -32
-132 -32 -10 0 -18 -4 -18 -10 0 -5 -10 -9 -22 -9 -13 0 -43 0 -67 0 -51 0
-110 30 -140 71 -32 43 -111 78 -213 95 -49 8 -103 21 -118 29 -16 8 -37 17
-47 18 -10 2 -31 10 -48 17 -53 23 -118 31 -290 35 -66 1 -120 4 -120 4 0 6
-441 21 -447 16z"/>
<path d="M1655 3580 c-11 -4 -100 -7 -198 -6 -97 0 -177 -2 -177 -6 0 -5 -7
-8 -15 -8 -8 0 -15 5 -15 11 0 6 -5 7 -12 2 -14 -8 -16 -8 -88 -18 -25 -3 -46
-10 -48 -16 -2 -5 -10 -9 -17 -9 -39 0 -67 -109 -51 -205 13 -80 62 -175 90
-175 8 0 24 -12 35 -26 12 -15 21 -23 21 -20 0 4 18 -7 40 -24 22 -17 40 -29
40 -25 0 3 10 -3 22 -15 12 -11 34 -26 50 -32 16 -7 31 -21 34 -31 3 -9 10
-15 15 -12 5 4 20 -5 33 -19 13 -14 28 -26 35 -26 6 0 11 -4 11 -10 0 -5 7
-10 14 -10 8 0 37 -12 63 -27 47 -26 52 -27 217 -26 120 0 171 4 176 13 10 15
21 15 31 -2 7 -9 11 -10 17 -2 4 6 23 14 42 17 19 2 44 8 55 11 96 29 262 71
325 82 19 4 66 22 104 40 39 19 76 34 83 34 7 0 13 3 13 8 0 4 16 16 35 26 19
11 63 51 97 90 144 163 229 235 270 228 17 -3 78 -55 78 -66 0 -22 184 -228
246 -276 107 -84 150 -112 217 -143 44 -21 83 -37 88 -37 5 0 9 -4 9 -8 0 -5
26 -14 58 -21 31 -7 77 -19 102 -27 25 -8 54 -14 66 -14 11 0 24 -4 30 -9 37
-37 328 -33 411 5 21 10 40 20 43 23 5 6 18 10 60 18 14 2 29 8 34 14 6 5 17
9 26 9 21 0 70 23 70 33 0 4 9 7 19 7 11 0 23 5 26 10 4 6 11 8 16 5 5 -4 9
-1 9 4 0 6 6 11 14 11 8 0 16 7 20 15 3 8 10 15 16 15 34 0 210 147 210 176 0
3 8 18 18 32 10 15 27 47 36 72 10 25 22 48 28 51 5 3 12 40 15 81 5 69 4 77
-18 102 -41 48 -68 56 -188 55 -61 0 -116 3 -121 6 -14 9 -75 17 -130 16 -205
0 -330 0 -420 2 -79 1 -120 -3 -167 -18 -35 -10 -63 -22 -63 -27 0 -4 -7 -8
-15 -8 -8 0 -15 -3 -16 -7 0 -5 -2 -16 -4 -26 -4 -23 115 -144 129 -130 3 4 6
1 6 -5 0 -36 186 -30 262 9 21 11 38 17 38 13 0 -4 6 -1 14 5 9 7 65 11 162
11 82 0 168 1 192 3 23 2 42 0 42 -5 0 -5 4 -7 9 -3 5 3 16 -8 25 -25 21 -44
5 -83 -61 -147 -30 -29 -57 -53 -62 -53 -4 0 -16 -8 -27 -19 -24 -22 -134 -74
-202 -96 -45 -14 -110 -22 -195 -24 -26 -1 -36 -5 -31 -13 5 -7 3 -8 -7 -2 -8
4 -39 9 -69 11 -69 2 -184 12 -230 18 -55 8 -162 47 -196 72 -17 13 -36 23
-42 23 -6 0 -22 11 -36 25 -14 14 -29 25 -33 25 -5 0 -23 13 -41 30 -18 16
-38 33 -46 37 -30 18 -79 86 -90 125 -16 54 -4 111 21 101 11 -4 14 -3 9 6 -5
8 -1 14 13 18 20 5 28 23 16 35 -3 3 -23 2 -45 -2 -22 -4 -40 -4 -40 0 0 8
-58 24 -74 21 -4 -1 -13 2 -20 7 -14 12 -136 13 -136 2 0 -12 -68 -10 -135 6
-65 15 -167 24 -315 28 -78 3 -97 0 -107 -13 -9 -12 -12 -13 -13 -2 0 9 -4 10
-12 3 -12 -9 -35 -12 -91 -13 -9 0 -15 -4 -12 -10 4 -5 -3 -9 -14 -9 -12 0
-21 6 -22 13 0 6 -4 3 -9 -8 -5 -11 -9 -14 -9 -7 -1 9 -8 11 -23 6 -29 -9 -91
-9 -106 0 -24 14 -130 28 -252 32 -121 3 -255 12 -275 18 -5 2 -19 0 -30 -4z
m863 -131 c93 1 141 -23 142 -71 1 -46 -81 -118 -185 -163 -22 -9 -54 -23 -71
-30 -18 -8 -48 -17 -68 -20 -20 -4 -36 -11 -36 -16 0 -5 -3 -8 -7 -7 -14 3
-73 -13 -73 -21 0 -5 -89 -29 -180 -48 -81 -16 -178 -23 -286 -18 -71 2 -136
6 -144 8 -59 12 -146 53 -185 86 -11 9 -37 26 -58 37 -121 61 -170 182 -95
235 27 20 34 20 111 10 45 -6 125 -10 177 -9 84 2 100 -1 138 -23 155 -87 171
-88 303 -21 100 52 131 63 192 67 21 1 40 5 43 8 3 3 51 3 107 1 56 -3 135 -5
175 -5z"/>
<path d="M3587 3533 c-4 -3 -27 -5 -52 -5 -27 1 -43 -3 -40 -8 3 -6 -1 -10
-10 -10 -9 0 -13 5 -10 10 3 6 2 10 -4 10 -5 0 -11 -5 -13 -10 -2 -6 -13 -12
-26 -13 -33 -2 -26 -14 13 -21 19 -4 35 -12 35 -18 0 -6 3 -9 6 -5 4 3 22 0
40 -8 19 -8 34 -12 34 -9 0 2 10 -2 23 -11 30 -19 134 -13 151 9 6 9 23 17 38
19 15 1 31 7 35 11 4 5 -9 6 -30 3 -23 -4 -35 -2 -32 4 4 5 -7 12 -24 15 -17
4 -31 11 -31 16 0 6 -7 8 -15 4 -8 -3 -15 -1 -15 5 0 6 -7 8 -16 5 -8 -3 -24
-2 -33 4 -10 5 -21 7 -24 3z"/>
<path d="M1015 2716 c-22 -12 -39 -28 -37 -34 1 -7 -2 -12 -6 -12 -4 0 -8 -9
-9 -20 -1 -11 4 -20 10 -20 7 0 6 -4 -3 -10 -10 -6 -11 -10 -2 -10 6 0 12 -9
12 -20 0 -11 9 -28 20 -37 11 -10 20 -23 20 -30 0 -7 4 -13 9 -13 5 0 11 -18
15 -40 3 -22 12 -40 19 -40 8 0 7 -4 -3 -10 -10 -7 -11 -13 -5 -17 6 -5 17
-33 24 -63 8 -30 17 -57 20 -60 9 -8 41 -70 41 -81 0 -6 16 -34 35 -64 19 -30
31 -55 27 -55 -4 0 -2 -4 3 -8 6 -4 16 -18 22 -32 47 -96 76 -132 250 -302 26
-26 67 -66 91 -90 58 -59 80 -78 91 -78 5 0 11 -3 13 -7 5 -13 130 -93 145
-93 7 0 13 -4 13 -9 0 -5 8 -11 18 -15 15 -5 54 -26 92 -51 8 -5 17 -10 20
-10 11 -1 165 -79 170 -85 5 -7 52 -20 83 -23 9 -1 17 -5 17 -9 0 -4 22 -8 49
-8 42 0 78 -7 131 -27 8 -3 24 -8 35 -10 11 -2 38 -8 60 -14 65 -18 76 -19
175 -25 52 -3 106 -6 120 -7 14 -2 33 1 43 6 11 5 17 4 17 -4 0 -7 30 -10 100
-7 61 2 102 -1 104 -7 3 -6 9 -3 15 5 7 10 14 11 19 5 7 -11 122 -16 122 -5 0
3 12 7 27 8 32 3 140 40 171 60 18 12 22 12 22 1 1 -10 4 -8 11 3 5 10 16 18
24 18 7 0 16 6 18 13 4 9 6 9 6 -1 1 -9 9 -9 37 3 20 8 49 15 64 15 16 0 31 6
33 13 4 9 6 9 6 -1 1 -10 6 -10 21 -2 11 6 24 8 29 5 5 -3 11 -2 13 2 4 11 75
43 93 43 8 0 15 3 15 8 0 4 15 13 33 21 114 47 247 131 325 205 30 28 61 55
69 60 22 12 60 44 115 97 26 26 48 44 48 41 0 -3 12 11 28 31 15 20 55 70 90
111 34 41 62 77 62 81 0 4 15 30 34 58 18 29 57 102 87 162 29 61 57 112 61
113 5 2 8 9 8 15 0 24 46 105 87 152 53 61 59 115 19 158 -21 23 -30 25 -72
21 -66 -6 -111 -53 -144 -155 -14 -41 -28 -75 -32 -77 -5 -2 -8 -10 -8 -17 0
-7 -22 -52 -50 -100 -27 -48 -50 -92 -50 -100 0 -7 -7 -18 -15 -25 -8 -6 -17
-21 -20 -31 -4 -11 -22 -43 -41 -72 -19 -28 -34 -55 -34 -59 0 -4 -8 -18 -17
-30 -28 -36 -258 -262 -294 -289 -17 -13 -42 -33 -53 -44 -12 -11 -26 -22 -31
-24 -20 -7 -89 -57 -119 -86 -18 -16 -50 -39 -71 -50 -22 -11 -41 -23 -43 -27
-2 -5 -8 -8 -13 -8 -13 0 -122 -51 -129 -60 -3 -4 -20 -13 -37 -21 -18 -8 -33
-17 -33 -20 0 -4 -28 -10 -62 -14 -35 -4 -70 -9 -78 -10 -92 -16 -128 -22
-170 -32 -14 -3 -117 -7 -230 -9 -174 -2 -220 0 -305 17 -55 11 -107 23 -115
27 -8 5 -36 8 -62 7 -27 0 -48 2 -48 5 0 3 -33 5 -73 4 -41 0 -84 5 -99 13
-15 7 -29 13 -30 12 -7 -2 -64 15 -68 21 -4 7 -88 52 -100 55 -3 1 -16 6 -30
13 -14 6 -52 19 -84 28 -33 10 -68 26 -78 36 -10 10 -22 18 -27 18 -5 0 -11 3
-13 8 -1 4 -28 24 -58 44 -30 20 -69 49 -86 65 -16 15 -52 46 -80 68 -27 21
-52 44 -56 50 -4 5 -8 6 -8 2 0 -5 -17 10 -37 34 -21 23 -52 56 -69 73 -41 42
-95 113 -118 156 -11 19 -27 43 -38 53 -32 31 -96 181 -109 253 -6 38 -15 76
-20 85 -4 8 -9 44 -10 80 -5 148 -92 222 -194 165z"/>
</g>
</svg>
