<?xml version="1.0" standalone="no"?>
<!DOCTYPE svg PUBLIC "-//W3C//DTD SVG 20010904//EN"
 "http://www.w3.org/TR/2001/REC-SVG-20010904/DTD/svg10.dtd">
<svg version="1.0" xmlns="http://www.w3.org/2000/svg"
 width="500.000000pt" height="500.000000pt" viewBox="0 0 500.000000 500.000000"
 preserveAspectRatio="xMidYMid meet">

<g transform="translate(0.000000,500.000000) scale(0.100000,-0.100000)"
fill="#000000" stroke="none">
<path d="M2925 4034 c-130 -13 -314 -38 -405 -55 -530 -101 -989 -318 -1302
-617 -369 -353 -535 -843 -438 -1295 121 -561 674 -958 1504 -1077 433 -62
1129 -46 1488 36 81 18 82 20 92 139 4 44 17 181 30 305 13 124 23 226 21 228
-1 2 -47 -6 -101 -17 -303 -61 -795 -89 -1075 -61 -499 51 -799 240 -885 558
-37 135 -25 368 25 515 128 372 460 586 1012 653 330 40 892 7 1207 -72 35 -9
65 -14 66 -13 5 6 88 680 84 683 -8 7 -295 58 -408 72 -119 15 -809 28 -915
18z"/>
</g>
</svg>
